<svg width="50" height="50" viewBox="0 0 50 50" fill="none" xmlns="http://www.w3.org/2000/svg">
<circle cx="25" cy="25" r="25" fill="#8981D8"/>
<path d="M28.2535 42.6474H18.5973C17.9532 42.6474 17.4706 42.1231 17.4706 41.5206C17.4706 40.9165 17.9931 40.3939 18.5973 40.3939H28.2535C35.0938 40.3939 40.6858 34.8002 40.6858 27.9599C40.6858 21.1196 35.0938 15.5276 28.2535 15.5276H8.33687C7.69278 15.5276 7.21014 15.005 7.21014 14.4009C7.21014 13.7568 7.73271 13.2741 8.33687 13.2741H28.2136C36.3403 13.2342 42.9393 19.8331 42.9393 27.9599C42.9393 36.0484 36.3403 42.6474 28.2535 42.6474Z" fill="white"/>
<path d="M28.2535 42.6474H18.5973C17.9532 42.6474 17.4706 42.1231 17.4706 41.5206C17.4706 40.9165 17.9931 40.3939 18.5973 40.3939H28.2535C35.0938 40.3939 40.6858 34.8002 40.6858 27.9599C40.6858 21.1196 35.0938 15.5276 28.2535 15.5276H8.33687C7.69278 15.5276 7.21014 15.005 7.21014 14.4009C7.21014 13.7568 7.73271 13.2741 8.33687 13.2741H28.2136C36.3403 13.2342 42.9393 19.8331 42.9393 27.9599C42.9393 36.0484 36.3403 42.6474 28.2535 42.6474Z" fill="black" fill-opacity="0.2"/>
<path d="M28.2535 42.6474H18.5973C17.9532 42.6474 17.4706 42.1231 17.4706 41.5206C17.4706 40.9165 17.9931 40.3939 18.5973 40.3939H28.2535C35.0938 40.3939 40.6858 34.8002 40.6858 27.9599C40.6858 21.1196 35.0938 15.5276 28.2535 15.5276H8.33687C7.69278 15.5276 7.21014 15.005 7.21014 14.4009C7.21014 13.7568 7.73271 13.2741 8.33687 13.2741H28.2136C36.3403 13.2342 42.9393 19.8331 42.9393 27.9599C42.9393 36.0484 36.3403 42.6474 28.2535 42.6474Z" fill="white"/>
<path d="M15.8609 22.3279C15.6196 22.3279 15.3366 22.2463 15.137 22.0466L7.13004 15.2463C6.88699 15.0449 6.72726 14.722 6.72726 14.4008C6.72726 14.0796 6.88699 13.7567 7.13004 13.5553L15.137 6.71501C15.6196 6.31397 16.3436 6.3539 16.7464 6.83653C17.1474 7.31917 17.1075 8.04313 16.6248 8.44591L9.6231 14.4008L16.6248 20.3556C17.1075 20.7584 17.1474 21.4824 16.7464 21.965C16.505 22.2063 16.1821 22.3279 15.8609 22.3279Z" fill="white"/>
<path d="M15.8609 22.3279C15.6196 22.3279 15.3366 22.2463 15.137 22.0466L7.13004 15.2463C6.88699 15.0449 6.72726 14.722 6.72726 14.4008C6.72726 14.0796 6.88699 13.7567 7.13004 13.5553L15.137 6.71501C15.6196 6.31397 16.3436 6.3539 16.7464 6.83653C17.1474 7.31917 17.1075 8.04313 16.6248 8.44591L9.6231 14.4008L16.6248 20.3556C17.1075 20.7584 17.1474 21.4824 16.7464 21.965C16.505 22.2063 16.1821 22.3279 15.8609 22.3279Z" fill="black" fill-opacity="0.2"/>
<path d="M15.8609 22.3279C15.6196 22.3279 15.3366 22.2463 15.137 22.0466L7.13004 15.2463C6.88699 15.0449 6.72726 14.722 6.72726 14.4008C6.72726 14.0796 6.88699 13.7567 7.13004 13.5553L15.137 6.71501C15.6196 6.31397 16.3436 6.3539 16.7464 6.83653C17.1474 7.31917 17.1075 8.04313 16.6248 8.44591L9.6231 14.4008L16.6248 20.3556C17.1075 20.7584 17.1474 21.4824 16.7464 21.965C16.505 22.2063 16.1821 22.3279 15.8609 22.3279Z" fill="white"/>
</svg>
