<svg width="130" height="130" viewBox="0 0 130 130" fill="none" xmlns="http://www.w3.org/2000/svg">
<g filter="url(#filter0_i_254_76)">
<path d="M56.3551 13.9609C54.9834 12.6797 52.7763 12.6797 51.4046 13.9609L40.0245 24.6068C38.6585 25.8776 38.6585 27.9505 40.0245 29.2318C41.3962 30.513 43.609 30.513 44.9751 29.2318L50.3941 24.1693V62.8099C50.3941 64.612 51.9578 66.0755 53.8939 66.0755C55.8245 66.0755 57.3938 64.612 57.3938 62.8099V24.1589L62.8128 29.2214C63.4958 29.8568 64.3934 30.1745 65.2853 30.1745C66.1715 30.1745 67.0747 29.8568 67.7521 29.2214C69.1238 27.9401 69.1238 25.8776 67.7521 24.5964L56.3551 13.9609Z" fill="#507CBC"/>
</g>
<path d="M77.073 34.6692C75.1424 34.6692 73.5732 36.1334 73.5732 37.9362V76.5934L68.1541 71.5287C66.7824 70.2469 64.5753 70.2469 63.2036 71.5287C61.8319 72.8105 61.8319 74.8739 63.2036 76.1557L74.5949 86.7957C75.2836 87.4313 76.1698 87.7492 77.073 87.7492C77.9592 87.7492 78.8624 87.4313 79.5398 86.7957L90.9311 76.1557C92.2972 74.8739 92.2972 72.8105 90.9311 71.5287C89.5594 70.2469 87.3523 70.2469 85.9806 71.5287L80.5615 76.5934V37.9362C80.5728 36.1334 79.0035 34.6692 77.073 34.6692Z" fill="#939393"/>
<path d="M6.87354 100.75V121H3.06348V100.75H6.87354ZM17.7104 117.783V111.429C17.7104 110.972 17.6357 110.581 17.4863 110.255C17.3369 109.921 17.104 109.662 16.7876 109.478C16.48 109.293 16.0801 109.201 15.5879 109.201C15.166 109.201 14.8013 109.275 14.4937 109.425C14.186 109.565 13.9487 109.772 13.7817 110.044C13.6147 110.308 13.5312 110.62 13.5312 110.98H9.73438C9.73438 110.374 9.875 109.798 10.1562 109.253C10.4375 108.708 10.8462 108.229 11.3823 107.816C11.9185 107.395 12.5557 107.065 13.2939 106.828C14.041 106.59 14.876 106.472 15.7988 106.472C16.9062 106.472 17.8906 106.656 18.752 107.025C19.6133 107.395 20.29 107.948 20.7822 108.687C21.2832 109.425 21.5337 110.348 21.5337 111.455V117.559C21.5337 118.341 21.582 118.983 21.6787 119.484C21.7754 119.976 21.916 120.407 22.1006 120.776V121H18.2642C18.0796 120.613 17.939 120.13 17.8423 119.55C17.7544 118.961 17.7104 118.372 17.7104 117.783ZM18.2114 112.312L18.2378 114.461H16.1152C15.6143 114.461 15.1792 114.518 14.8101 114.632C14.4409 114.747 14.1377 114.909 13.9004 115.12C13.6631 115.322 13.4873 115.56 13.373 115.832C13.2676 116.104 13.2148 116.403 13.2148 116.729C13.2148 117.054 13.2896 117.348 13.439 117.612C13.5884 117.867 13.8037 118.069 14.085 118.218C14.3662 118.359 14.6958 118.429 15.0737 118.429C15.645 118.429 16.1416 118.315 16.5635 118.086C16.9854 117.858 17.3105 117.577 17.5391 117.243C17.7764 116.909 17.8994 116.592 17.9082 116.293L18.9102 117.902C18.7695 118.262 18.5762 118.636 18.3301 119.022C18.0928 119.409 17.7896 119.774 17.4204 120.117C17.0513 120.451 16.6074 120.728 16.0889 120.947C15.5703 121.158 14.9551 121.264 14.2432 121.264C13.3379 121.264 12.5161 121.083 11.7778 120.723C11.0483 120.354 10.4683 119.849 10.0376 119.207C9.61572 118.557 9.40479 117.818 9.40479 116.992C9.40479 116.245 9.54541 115.582 9.82666 115.001C10.1079 114.421 10.521 113.934 11.0659 113.538C11.6196 113.134 12.3096 112.831 13.1357 112.628C13.9619 112.417 14.9199 112.312 16.0098 112.312H18.2114ZM32.1729 117.058C32.1729 116.786 32.0938 116.54 31.9355 116.32C31.7773 116.1 31.4829 115.898 31.0522 115.713C30.6304 115.52 30.0195 115.344 29.2197 115.186C28.499 115.028 27.8267 114.83 27.2026 114.593C26.5874 114.347 26.0513 114.052 25.5942 113.709C25.146 113.367 24.7944 112.962 24.5396 112.497C24.2847 112.022 24.1572 111.481 24.1572 110.875C24.1572 110.277 24.2847 109.715 24.5396 109.188C24.8032 108.66 25.1768 108.194 25.6602 107.79C26.1523 107.377 26.75 107.056 27.4531 106.828C28.165 106.59 28.9648 106.472 29.8525 106.472C31.0918 106.472 32.1553 106.669 33.043 107.065C33.9395 107.46 34.625 108.005 35.0996 108.7C35.583 109.385 35.8247 110.167 35.8247 111.046H32.0278C32.0278 110.677 31.9487 110.348 31.7905 110.058C31.6411 109.759 31.4038 109.526 31.0786 109.359C30.7622 109.183 30.3491 109.095 29.8394 109.095C29.4175 109.095 29.0527 109.17 28.7451 109.319C28.4375 109.46 28.2002 109.653 28.0332 109.899C27.875 110.137 27.7959 110.4 27.7959 110.69C27.7959 110.91 27.8398 111.108 27.9277 111.284C28.0244 111.451 28.1782 111.604 28.3892 111.745C28.6001 111.886 28.8726 112.018 29.2065 112.141C29.5493 112.255 29.9712 112.36 30.4722 112.457C31.5005 112.668 32.4189 112.945 33.2275 113.288C34.0361 113.622 34.6777 114.079 35.1523 114.659C35.627 115.23 35.8643 115.981 35.8643 116.913C35.8643 117.546 35.7236 118.126 35.4424 118.653C35.1611 119.181 34.7568 119.642 34.2295 120.038C33.7021 120.424 33.0693 120.728 32.3311 120.947C31.6016 121.158 30.7798 121.264 29.8657 121.264C28.5386 121.264 27.4136 121.026 26.4907 120.552C25.5767 120.077 24.8823 119.475 24.4077 118.746C23.9419 118.007 23.709 117.251 23.709 116.478H27.3081C27.3257 116.997 27.4575 117.414 27.7036 117.73C27.9585 118.047 28.2793 118.275 28.666 118.416C29.0615 118.557 29.4878 118.627 29.9448 118.627C30.437 118.627 30.8457 118.561 31.1709 118.429C31.4961 118.289 31.7422 118.104 31.9092 117.875C32.085 117.638 32.1729 117.366 32.1729 117.058ZM45.3169 106.735V109.425H37.0112V106.735H45.3169ZM39.0679 103.215H42.8647V116.702C42.8647 117.115 42.9175 117.432 43.0229 117.651C43.1372 117.871 43.3042 118.025 43.5239 118.113C43.7437 118.192 44.0205 118.231 44.3545 118.231C44.5918 118.231 44.8027 118.223 44.9873 118.205C45.1807 118.179 45.3433 118.152 45.4751 118.126L45.4883 120.921C45.1631 121.026 44.8115 121.11 44.4336 121.171C44.0557 121.233 43.6382 121.264 43.1812 121.264C42.3462 121.264 41.6167 121.127 40.9927 120.855C40.3774 120.574 39.9028 120.125 39.5688 119.51C39.2349 118.895 39.0679 118.086 39.0679 117.084V103.215ZM60.7681 121.264C59.6606 121.264 58.6675 121.088 57.7886 120.736C56.9097 120.376 56.1626 119.879 55.5474 119.247C54.9409 118.614 54.4751 117.88 54.1499 117.045C53.8247 116.201 53.6621 115.305 53.6621 114.355V113.828C53.6621 112.747 53.8159 111.758 54.1235 110.862C54.4312 109.965 54.8706 109.188 55.4419 108.528C56.022 107.869 56.7251 107.364 57.5513 107.012C58.3774 106.652 59.3091 106.472 60.3462 106.472C61.3569 106.472 62.2534 106.639 63.0356 106.973C63.8179 107.307 64.4727 107.781 65 108.396C65.5361 109.012 65.9404 109.75 66.2129 110.611C66.4854 111.464 66.6216 112.413 66.6216 113.459V115.041H55.2837V112.51H62.8906V112.22C62.8906 111.692 62.7939 111.222 62.6006 110.809C62.416 110.387 62.1348 110.053 61.7568 109.807C61.3789 109.561 60.8955 109.438 60.3066 109.438C59.8057 109.438 59.375 109.548 59.0146 109.768C58.6543 109.987 58.3599 110.295 58.1313 110.69C57.9116 111.086 57.7446 111.552 57.6304 112.088C57.5249 112.615 57.4722 113.195 57.4722 113.828V114.355C57.4722 114.927 57.5513 115.454 57.7095 115.938C57.8765 116.421 58.1094 116.838 58.4082 117.19C58.7158 117.542 59.085 117.814 59.5156 118.007C59.9551 118.201 60.4517 118.297 61.0054 118.297C61.6909 118.297 62.3281 118.166 62.917 117.902C63.5146 117.629 64.0288 117.221 64.4595 116.676L66.3052 118.68C66.0063 119.11 65.5977 119.523 65.0791 119.919C64.5693 120.314 63.9541 120.64 63.2334 120.895C62.5127 121.141 61.6909 121.264 60.7681 121.264ZM77.208 117.889V100.75H81.0312V121H77.5903L77.208 117.889ZM68.1904 114.039V113.762C68.1904 112.672 68.3135 111.684 68.5596 110.796C68.8057 109.899 69.166 109.13 69.6406 108.489C70.1152 107.847 70.6997 107.351 71.394 106.999C72.0884 106.647 72.8794 106.472 73.7671 106.472C74.6021 106.472 75.3315 106.647 75.9556 106.999C76.5884 107.351 77.1245 107.852 77.564 108.502C78.0122 109.144 78.3726 109.904 78.645 110.783C78.9175 111.653 79.1152 112.606 79.2383 113.644V114.25C79.1152 115.243 78.9175 116.166 78.645 117.019C78.3726 117.871 78.0122 118.618 77.564 119.26C77.1245 119.893 76.5884 120.385 75.9556 120.736C75.3228 121.088 74.5845 121.264 73.7407 121.264C72.853 121.264 72.062 121.083 71.3677 120.723C70.6821 120.363 70.1021 119.857 69.6274 119.207C69.1616 118.557 68.8057 117.792 68.5596 116.913C68.3135 116.034 68.1904 115.076 68.1904 114.039ZM71.9873 113.762V114.039C71.9873 114.628 72.0312 115.177 72.1191 115.687C72.2158 116.197 72.3696 116.649 72.5806 117.045C72.8003 117.432 73.0815 117.735 73.4243 117.955C73.7759 118.166 74.2021 118.271 74.7031 118.271C75.3535 118.271 75.8896 118.126 76.3115 117.836C76.7334 117.537 77.0542 117.128 77.2739 116.61C77.5024 116.091 77.6343 115.494 77.6694 114.817V113.09C77.6431 112.536 77.564 112.04 77.4321 111.6C77.3091 111.152 77.1245 110.77 76.8784 110.453C76.6411 110.137 76.3423 109.891 75.9819 109.715C75.6304 109.539 75.2129 109.451 74.7295 109.451C74.2373 109.451 73.8154 109.565 73.4639 109.794C73.1123 110.014 72.8267 110.317 72.6069 110.704C72.396 111.09 72.2378 111.547 72.1323 112.075C72.0356 112.593 71.9873 113.156 71.9873 113.762ZM88.0054 106.735V121H84.1953V106.735H88.0054ZM83.958 103.018C83.958 102.464 84.1514 102.007 84.5381 101.646C84.9248 101.286 85.4434 101.106 86.0938 101.106C86.7354 101.106 87.2495 101.286 87.6362 101.646C88.0317 102.007 88.2295 102.464 88.2295 103.018C88.2295 103.571 88.0317 104.028 87.6362 104.389C87.2495 104.749 86.7354 104.929 86.0938 104.929C85.4434 104.929 84.9248 104.749 84.5381 104.389C84.1514 104.028 83.958 103.571 83.958 103.018ZM98.1304 106.735V109.425H89.8247V106.735H98.1304ZM91.8813 103.215H95.6782V116.702C95.6782 117.115 95.731 117.432 95.8364 117.651C95.9507 117.871 96.1177 118.025 96.3374 118.113C96.5571 118.192 96.834 118.231 97.168 118.231C97.4053 118.231 97.6162 118.223 97.8008 118.205C97.9941 118.179 98.1567 118.152 98.2886 118.126L98.3018 120.921C97.9766 121.026 97.625 121.11 97.2471 121.171C96.8691 121.233 96.4517 121.264 95.9946 121.264C95.1597 121.264 94.4302 121.127 93.8062 120.855C93.1909 120.574 92.7163 120.125 92.3823 119.51C92.0483 118.895 91.8813 118.086 91.8813 117.084V103.215ZM106.858 121.264C105.75 121.264 104.757 121.088 103.878 120.736C103 120.376 102.252 119.879 101.637 119.247C101.031 118.614 100.565 117.88 100.24 117.045C99.9146 116.201 99.752 115.305 99.752 114.355V113.828C99.752 112.747 99.9058 111.758 100.213 110.862C100.521 109.965 100.96 109.188 101.532 108.528C102.112 107.869 102.815 107.364 103.641 107.012C104.467 106.652 105.399 106.472 106.436 106.472C107.447 106.472 108.343 106.639 109.125 106.973C109.908 107.307 110.562 107.781 111.09 108.396C111.626 109.012 112.03 109.75 112.303 110.611C112.575 111.464 112.711 112.413 112.711 113.459V115.041H101.374V112.51H108.98V112.22C108.98 111.692 108.884 111.222 108.69 110.809C108.506 110.387 108.225 110.053 107.847 109.807C107.469 109.561 106.985 109.438 106.396 109.438C105.896 109.438 105.465 109.548 105.104 109.768C104.744 109.987 104.45 110.295 104.221 110.69C104.001 111.086 103.834 111.552 103.72 112.088C103.615 112.615 103.562 113.195 103.562 113.828V114.355C103.562 114.927 103.641 115.454 103.799 115.938C103.966 116.421 104.199 116.838 104.498 117.19C104.806 117.542 105.175 117.814 105.605 118.007C106.045 118.201 106.542 118.297 107.095 118.297C107.781 118.297 108.418 118.166 109.007 117.902C109.604 117.629 110.119 117.221 110.549 116.676L112.395 118.68C112.096 119.11 111.688 119.523 111.169 119.919C110.659 120.314 110.044 120.64 109.323 120.895C108.603 121.141 107.781 121.264 106.858 121.264ZM123.298 117.889V100.75H127.121V121H123.68L123.298 117.889ZM114.28 114.039V113.762C114.28 112.672 114.403 111.684 114.649 110.796C114.896 109.899 115.256 109.13 115.73 108.489C116.205 107.847 116.79 107.351 117.484 106.999C118.178 106.647 118.969 106.472 119.857 106.472C120.692 106.472 121.421 106.647 122.045 106.999C122.678 107.351 123.214 107.852 123.654 108.502C124.102 109.144 124.462 109.904 124.735 110.783C125.007 111.653 125.205 112.606 125.328 113.644V114.25C125.205 115.243 125.007 116.166 124.735 117.019C124.462 117.871 124.102 118.618 123.654 119.26C123.214 119.893 122.678 120.385 122.045 120.736C121.413 121.088 120.674 121.264 119.831 121.264C118.943 121.264 118.152 121.083 117.458 120.723C116.772 120.363 116.192 119.857 115.717 119.207C115.251 118.557 114.896 117.792 114.649 116.913C114.403 116.034 114.28 115.076 114.28 114.039ZM118.077 113.762V114.039C118.077 114.628 118.121 115.177 118.209 115.687C118.306 116.197 118.459 116.649 118.67 117.045C118.89 117.432 119.171 117.735 119.514 117.955C119.866 118.166 120.292 118.271 120.793 118.271C121.443 118.271 121.979 118.126 122.401 117.836C122.823 117.537 123.144 117.128 123.364 116.61C123.592 116.091 123.724 115.494 123.759 114.817V113.09C123.733 112.536 123.654 112.04 123.522 111.6C123.399 111.152 123.214 110.77 122.968 110.453C122.731 110.137 122.432 109.891 122.072 109.715C121.72 109.539 121.303 109.451 120.819 109.451C120.327 109.451 119.905 109.565 119.554 109.794C119.202 110.014 118.917 110.317 118.697 110.704C118.486 111.09 118.328 111.547 118.222 112.075C118.125 112.593 118.077 113.156 118.077 113.762Z" fill="#737373"/>
<defs>
<filter id="filter0_i_254_76" x="39" y="13" width="29.7808" height="57.0756" filterUnits="userSpaceOnUse" color-interpolation-filters="sRGB">
<feFlood flood-opacity="0" result="BackgroundImageFix"/>
<feBlend mode="normal" in="SourceGraphic" in2="BackgroundImageFix" result="shape"/>
<feColorMatrix in="SourceAlpha" type="matrix" values="0 0 0 0 0 0 0 0 0 0 0 0 0 0 0 0 0 0 127 0" result="hardAlpha"/>
<feOffset dy="4"/>
<feGaussianBlur stdDeviation="2"/>
<feComposite in2="hardAlpha" operator="arithmetic" k2="-1" k3="1"/>
<feColorMatrix type="matrix" values="0 0 0 0 0 0 0 0 0 0 0 0 0 0 0 0 0 0 0.25 0"/>
<feBlend mode="normal" in2="shape" result="effect1_innerShadow_254_76"/>
</filter>
</defs>
</svg>
