<svg width="50" height="50" viewBox="0 0 50 50" fill="none" xmlns="http://www.w3.org/2000/svg">
<circle cx="25" cy="25" r="25" fill="#77B8EE"/>
<path d="M28.2535 42.6476H18.5973C17.9532 42.6476 17.4706 42.1233 17.4706 41.5209C17.4706 40.9167 17.9931 40.3942 18.5973 40.3942H28.2535C35.0938 40.3942 40.6858 34.8004 40.6858 27.9601C40.6858 21.1198 35.0938 15.5278 28.2535 15.5278H8.33687C7.69278 15.5278 7.21014 15.0053 7.21014 14.4011C7.21014 13.757 7.73271 13.2744 8.33687 13.2744H28.2136C36.3403 13.2344 42.9393 19.8334 42.9393 27.9601C42.9393 36.0487 36.3403 42.6476 28.2535 42.6476Z" fill="white"/>
<path d="M28.2535 42.6476H18.5973C17.9532 42.6476 17.4706 42.1233 17.4706 41.5209C17.4706 40.9167 17.9931 40.3942 18.5973 40.3942H28.2535C35.0938 40.3942 40.6858 34.8004 40.6858 27.9601C40.6858 21.1198 35.0938 15.5278 28.2535 15.5278H8.33687C7.69278 15.5278 7.21014 15.0053 7.21014 14.4011C7.21014 13.757 7.73271 13.2744 8.33687 13.2744H28.2136C36.3403 13.2344 42.9393 19.8334 42.9393 27.9601C42.9393 36.0487 36.3403 42.6476 28.2535 42.6476Z" fill="black" fill-opacity="0.2"/>
<path d="M28.2535 42.6476H18.5973C17.9532 42.6476 17.4706 42.1233 17.4706 41.5209C17.4706 40.9167 17.9931 40.3942 18.5973 40.3942H28.2535C35.0938 40.3942 40.6858 34.8004 40.6858 27.9601C40.6858 21.1198 35.0938 15.5278 28.2535 15.5278H8.33687C7.69278 15.5278 7.21014 15.0053 7.21014 14.4011C7.21014 13.757 7.73271 13.2744 8.33687 13.2744H28.2136C36.3403 13.2344 42.9393 19.8334 42.9393 27.9601C42.9393 36.0487 36.3403 42.6476 28.2535 42.6476Z" fill="white"/>
<path d="M15.8609 22.3281C15.6196 22.3281 15.3366 22.2465 15.137 22.0468L7.13004 15.2465C6.88699 15.0451 6.72726 14.7222 6.72726 14.401C6.72726 14.0798 6.88699 13.7569 7.13004 13.5555L15.137 6.71525C15.6196 6.31421 16.3436 6.35414 16.7464 6.83678C17.1474 7.31942 17.1075 8.04338 16.6248 8.44615L9.6231 14.401L16.6248 20.3559C17.1075 20.7587 17.1474 21.4826 16.7464 21.9653C16.505 22.2066 16.1821 22.3281 15.8609 22.3281Z" fill="white"/>
<path d="M15.8609 22.3281C15.6196 22.3281 15.3366 22.2465 15.137 22.0468L7.13004 15.2465C6.88699 15.0451 6.72726 14.7222 6.72726 14.401C6.72726 14.0798 6.88699 13.7569 7.13004 13.5555L15.137 6.71525C15.6196 6.31421 16.3436 6.35414 16.7464 6.83678C17.1474 7.31942 17.1075 8.04338 16.6248 8.44615L9.6231 14.401L16.6248 20.3559C17.1075 20.7587 17.1474 21.4826 16.7464 21.9653C16.505 22.2066 16.1821 22.3281 15.8609 22.3281Z" fill="black" fill-opacity="0.2"/>
<path d="M15.8609 22.3281C15.6196 22.3281 15.3366 22.2465 15.137 22.0468L7.13004 15.2465C6.88699 15.0451 6.72726 14.7222 6.72726 14.401C6.72726 14.0798 6.88699 13.7569 7.13004 13.5555L15.137 6.71525C15.6196 6.31421 16.3436 6.35414 16.7464 6.83678C17.1474 7.31942 17.1075 8.04338 16.6248 8.44615L9.6231 14.401L16.6248 20.3559C17.1075 20.7587 17.1474 21.4826 16.7464 21.9653C16.505 22.2066 16.1821 22.3281 15.8609 22.3281Z" fill="white"/>
</svg>
