<svg xmlns="http://www.w3.org/2000/svg" xmlns:xlink="http://www.w3.org/1999/xlink" width="100" zoomAndPan="magnify" viewBox="0 0 75 74.999997" height="100" preserveAspectRatio="xMidYMid meet" version="1.0"><defs><clipPath id="c9a46bd7e0"><path d="M 9 6.71875 L 65.871094 6.71875 L 65.871094 68.21875 L 9 68.21875 Z M 9 6.71875 " clip-rule="nonzero"/></clipPath></defs><g clip-path="url(#c9a46bd7e0)"><path fill="#507cbc" d="M 30.621094 34.007812 C 31.960938 35.691406 33.0625 37.757812 33.0625 39.871094 L 33.0625 60.625 C 33.0625 62.789062 33.828125 63.652344 35.601562 64.949219 L 39.957031 67.59375 C 40.535156 68.027344 41.109375 68.21875 41.585938 68.21875 C 42.542969 68.21875 43.167969 67.402344 43.167969 65.960938 L 43.167969 39.871094 C 43.121094 38.476562 43.789062 35.882812 45.226562 33.960938 L 64.429688 9.746094 C 65.816406 8.0625 65.195312 6.71875 62.992188 6.71875 L 11.753906 6.71875 C 9.597656 6.71875 8.929688 8.113281 10.316406 9.792969 Z M 30.621094 34.007812 " fill-opacity="1" fill-rule="nonzero"/></g></svg>