<svg width="288" height="262" viewBox="0 0 288 262" fill="none" xmlns="http://www.w3.org/2000/svg">
<path d="M180.982 40.1342L174.757 46.3589C168.374 39.9753 155.539 27.141 149.156 20.7573L155.38 14.541C172.816 -1.87419 197.389 22.7151 180.982 40.1342ZM94.7731 126.343L85.1433 116.713L158.786 43.0709L168.415 52.7008L94.7731 126.343ZM74.5094 135.672L59.8428 121.005L64.5365 108.79C65.9839 110.237 86.0803 130.334 86.7245 130.978L74.5094 135.672ZM53.8022 143.637C53.0157 143.938 52.4719 143.561 52.2126 143.302C51.9616 143.043 51.5767 142.499 51.8779 141.712L56.3205 130.167L65.3564 139.194L53.8022 143.637ZM142.814 27.0991L152.444 36.729L78.8014 110.371L69.1715 100.741L142.814 27.0991ZM187.324 8.19913C177.242 -2.30088 159.12 -2.30925 149.039 8.19913C149.03 8.2075 139.651 17.5864 139.643 17.5948L59.6588 97.5705C59.2404 98.0391 58.8723 98.5494 58.6464 99.1351L43.5113 138.491C42.0054 142.407 42.909 146.674 45.8707 149.644C48.8492 152.631 53.1663 153.501 57.0233 152.012C57.0317 152.012 75.0867 145.059 75.095 145.059C75.7393 144.683 98.3457 136.483 97.9441 135.856L187.324 46.4761C197.815 36.4027 197.824 18.2641 187.324 8.19913Z" fill="white"/>
<path d="M56.1643 261.87C54.8256 261.87 53.5205 261.669 52.2488 261.267C50.9938 260.849 50.0065 260.297 49.2703 259.627L50.2408 257.619C50.9268 258.222 51.8137 258.724 52.8846 259.125C53.9555 259.51 55.0432 259.694 56.1643 259.694C57.6535 259.694 58.7747 259.452 59.5109 258.958C60.2472 258.448 60.6153 257.77 60.6153 256.917C60.6153 256.298 60.4145 255.796 60.0129 255.411C59.6113 255.034 59.1093 254.741 58.5069 254.541C57.9213 254.323 57.1013 254.089 56.0304 253.838C54.6667 253.503 53.5707 253.185 52.7507 252.867C51.9225 252.533 51.2113 252.031 50.6089 251.361C50.0233 250.675 49.7388 249.755 49.7388 248.617C49.7388 247.663 49.9814 246.802 50.475 246.04C50.9854 245.262 51.7551 244.635 52.7842 244.166C53.8049 243.698 55.0766 243.463 56.5994 243.463C57.6703 243.463 58.7161 243.614 59.7452 243.898C60.7659 244.166 61.6527 244.559 62.389 245.07L61.5523 247.111C60.791 246.643 59.9794 246.291 59.1093 246.04C58.2559 245.798 57.4193 245.672 56.5994 245.672C55.1436 245.672 54.0559 245.94 53.3197 246.475C52.6001 246.994 52.2488 247.672 52.2488 248.517C52.2488 249.119 52.4495 249.621 52.8511 250.023C53.2695 250.407 53.7882 250.709 54.3906 250.926C54.993 251.127 55.8129 251.353 56.8671 251.596C58.2225 251.93 59.3101 252.265 60.1133 252.6C60.9332 252.917 61.636 253.403 62.2217 254.072C62.8241 254.741 63.1253 255.637 63.1253 256.749C63.1253 257.711 62.8659 258.582 62.3555 259.36C61.8368 260.121 61.0587 260.732 60.0129 261.2C58.9838 261.652 57.7037 261.87 56.1643 261.87Z" fill="white"/>
<path d="M78.6512 245.906H72.4934V243.664H87.3859V245.906H81.1946V261.669H78.6512V245.906Z" fill="white"/>
<path d="M105.819 261.87C103.426 261.87 101.569 261.192 100.23 259.828C98.8915 258.448 98.2222 256.473 98.2222 253.905V243.664H100.799V253.804C100.799 257.67 102.481 259.594 105.852 259.594C107.501 259.594 108.764 259.125 109.634 258.188C110.504 257.235 110.939 255.77 110.939 253.804V243.664H113.449V253.905C113.449 256.498 112.78 258.473 111.441 259.828C110.103 261.192 108.229 261.87 105.819 261.87Z" fill="white"/>
<path d="M126.919 243.664H134.482C136.373 243.664 138.063 244.049 139.535 244.802C141.025 245.563 142.179 246.626 142.982 247.981C143.802 249.345 144.221 250.909 144.221 252.666C144.221 254.432 143.802 255.996 142.982 257.352C142.179 258.715 141.025 259.778 139.535 260.531C138.063 261.292 136.373 261.669 134.482 261.669H126.919V243.664ZM134.348 259.427C135.796 259.427 137.067 259.151 138.163 258.59C139.276 258.013 140.138 257.218 140.74 256.214C141.343 255.193 141.644 254.005 141.644 252.666C141.644 251.328 141.343 250.156 140.74 249.153C140.138 248.132 139.276 247.337 138.163 246.776C137.067 246.199 135.796 245.906 134.348 245.906H129.462V259.427H134.348Z" fill="white"/>
<path d="M156.348 243.664H158.891V261.669H156.348V243.664Z" fill="white"/>
<path d="M180.613 261.87C178.806 261.87 177.166 261.485 175.694 260.698C174.238 259.895 173.1 258.791 172.28 257.385C171.452 255.98 171.042 254.407 171.042 252.666C171.042 250.951 171.452 249.387 172.28 247.981C173.1 246.576 174.238 245.471 175.694 244.668C177.166 243.865 178.806 243.463 180.613 243.463C182.42 243.463 184.044 243.865 185.499 244.668C186.972 245.471 188.11 246.576 188.913 247.981C189.733 249.37 190.151 250.926 190.151 252.666C190.151 254.432 189.733 256.013 188.913 257.419C188.11 258.807 186.972 259.895 185.499 260.698C184.044 261.485 182.42 261.87 180.613 261.87ZM180.613 259.594C181.927 259.594 183.107 259.293 184.161 258.69C185.232 258.088 186.068 257.268 186.671 256.214C187.273 255.168 187.574 253.988 187.574 252.666C187.574 251.378 187.273 250.207 186.671 249.153C186.068 248.082 185.232 247.262 184.161 246.676C183.107 246.074 181.927 245.772 180.613 245.772C179.291 245.772 178.103 246.074 177.032 246.676C175.962 247.262 175.125 248.082 174.522 249.153C173.92 250.207 173.619 251.378 173.619 252.666C173.619 253.988 173.92 255.168 174.522 256.214C175.125 257.268 175.962 258.088 177.032 258.69C178.103 259.293 179.291 259.594 180.613 259.594Z" fill="white"/>
<path d="M14.0869 219H6.34766L6.39648 213.287H14.0869C16.0075 213.287 17.627 212.856 18.9453 211.993C20.2637 211.114 21.2565 209.837 21.9238 208.16C22.6074 206.484 22.9492 204.457 22.9492 202.081V200.348C22.9492 198.525 22.7539 196.922 22.3633 195.538C21.9889 194.155 21.4274 192.991 20.6787 192.047C19.93 191.103 19.0104 190.395 17.9199 189.923C16.8294 189.435 15.5762 189.19 14.1602 189.19H6.20117V183.453H14.1602C16.5365 183.453 18.7093 183.86 20.6787 184.674C22.6644 185.471 24.3815 186.619 25.8301 188.116C27.2786 189.614 28.3936 191.404 29.1748 193.487C29.9723 195.554 30.3711 197.857 30.3711 200.396V202.081C30.3711 204.604 29.9723 206.907 29.1748 208.99C28.3936 211.074 27.2786 212.864 25.8301 214.361C24.3978 215.842 22.6807 216.99 20.6787 217.804C18.693 218.601 16.4958 219 14.0869 219ZM10.498 183.453V219H3.17383V183.453H10.498ZM59.5459 213.287V219H40.625V213.287H59.5459ZM43.0176 183.453V219H35.6934V183.453H43.0176ZM57.0801 197.931V203.497H40.625V197.931H57.0801ZM59.5215 183.453V189.19H40.625V183.453H59.5215ZM76.6357 211.578L85.0098 183.453H93.1641L80.7861 219H75.415L76.6357 211.578ZM68.9209 183.453L77.2705 211.578L78.54 219H73.1201L60.8154 183.453H68.9209ZM123.511 183.453V219H116.211V183.453H123.511ZM134.448 183.453V189.19H105.444V183.453H134.448ZM167.139 200.396V202.081C167.139 204.783 166.772 207.208 166.04 209.356C165.308 211.505 164.274 213.336 162.939 214.85C161.605 216.347 160.01 217.494 158.154 218.292C156.315 219.09 154.272 219.488 152.026 219.488C149.797 219.488 147.754 219.09 145.898 218.292C144.059 217.494 142.464 216.347 141.113 214.85C139.762 213.336 138.713 211.505 137.964 209.356C137.231 207.208 136.865 204.783 136.865 202.081V200.396C136.865 197.678 137.231 195.253 137.964 193.121C138.696 190.973 139.73 189.142 141.064 187.628C142.415 186.114 144.01 184.959 145.85 184.161C147.705 183.364 149.748 182.965 151.978 182.965C154.224 182.965 156.266 183.364 158.105 184.161C159.961 184.959 161.556 186.114 162.891 187.628C164.242 189.142 165.283 190.973 166.016 193.121C166.764 195.253 167.139 197.678 167.139 200.396ZM159.741 202.081V200.348C159.741 198.46 159.57 196.799 159.229 195.367C158.887 193.935 158.382 192.73 157.715 191.754C157.048 190.777 156.234 190.045 155.273 189.557C154.313 189.052 153.215 188.8 151.978 188.8C150.741 188.8 149.642 189.052 148.682 189.557C147.738 190.045 146.932 190.777 146.265 191.754C145.614 192.73 145.117 193.935 144.775 195.367C144.434 196.799 144.263 198.46 144.263 200.348V202.081C144.263 203.953 144.434 205.613 144.775 207.062C145.117 208.494 145.622 209.706 146.289 210.699C146.956 211.676 147.77 212.416 148.73 212.921C149.691 213.425 150.789 213.678 152.026 213.678C153.263 213.678 154.362 213.425 155.322 212.921C156.283 212.416 157.088 211.676 157.739 210.699C158.39 209.706 158.887 208.494 159.229 207.062C159.57 205.613 159.741 203.953 159.741 202.081ZM185.84 200.982V206.5H172.046V200.982H185.84ZM203.052 219H195.312L195.361 213.287H203.052C204.972 213.287 206.592 212.856 207.91 211.993C209.229 211.114 210.221 209.837 210.889 208.16C211.572 206.484 211.914 204.457 211.914 202.081V200.348C211.914 198.525 211.719 196.922 211.328 195.538C210.954 194.155 210.392 192.991 209.644 192.047C208.895 191.103 207.975 190.395 206.885 189.923C205.794 189.435 204.541 189.19 203.125 189.19H195.166V183.453H203.125C205.501 183.453 207.674 183.86 209.644 184.674C211.629 185.471 213.346 186.619 214.795 188.116C216.243 189.614 217.358 191.404 218.14 193.487C218.937 195.554 219.336 197.857 219.336 200.396V202.081C219.336 204.604 218.937 206.907 218.14 208.99C217.358 211.074 216.243 212.864 214.795 214.361C213.363 215.842 211.646 216.99 209.644 217.804C207.658 218.601 205.461 219 203.052 219ZM199.463 183.453V219H192.139V183.453H199.463ZM253.857 200.396V202.081C253.857 204.783 253.491 207.208 252.759 209.356C252.026 211.505 250.993 213.336 249.658 214.85C248.324 216.347 246.729 217.494 244.873 218.292C243.034 219.09 240.991 219.488 238.745 219.488C236.515 219.488 234.473 219.09 232.617 218.292C230.778 217.494 229.183 216.347 227.832 214.85C226.481 213.336 225.431 211.505 224.683 209.356C223.95 207.208 223.584 204.783 223.584 202.081V200.396C223.584 197.678 223.95 195.253 224.683 193.121C225.415 190.973 226.449 189.142 227.783 187.628C229.134 186.114 230.729 184.959 232.568 184.161C234.424 183.364 236.466 182.965 238.696 182.965C240.942 182.965 242.985 183.364 244.824 184.161C246.68 184.959 248.275 186.114 249.609 187.628C250.96 189.142 252.002 190.973 252.734 193.121C253.483 195.253 253.857 197.678 253.857 200.396ZM246.46 202.081V200.348C246.46 198.46 246.289 196.799 245.947 195.367C245.605 193.935 245.101 192.73 244.434 191.754C243.766 190.777 242.952 190.045 241.992 189.557C241.032 189.052 239.933 188.8 238.696 188.8C237.459 188.8 236.361 189.052 235.4 189.557C234.456 190.045 233.651 190.777 232.983 191.754C232.332 192.73 231.836 193.935 231.494 195.367C231.152 196.799 230.981 198.46 230.981 200.348V202.081C230.981 203.953 231.152 205.613 231.494 207.062C231.836 208.494 232.34 209.706 233.008 210.699C233.675 211.676 234.489 212.416 235.449 212.921C236.41 213.425 237.508 213.678 238.745 213.678C239.982 213.678 241.081 213.425 242.041 212.921C243.001 212.416 243.807 211.676 244.458 210.699C245.109 209.706 245.605 208.494 245.947 207.062C246.289 205.613 246.46 203.953 246.46 202.081Z" fill="white"/>
</svg>
