<svg width="50" height="51" viewBox="0 0 50 51" fill="none" xmlns="http://www.w3.org/2000/svg">
<circle cx="25" cy="25.5" r="25" fill="#8981D8"/>
<path d="M19 31.5C19 33.433 20.567 35 22.5 35H28C32.9706 35 37 30.9706 37 26V22.5C37 18.3579 33.6421 15 29.5 15L22.5 15C20.567 15 19 16.567 19 18.5V20C19 21.1046 18.1046 22 17 22C15.8954 22 15 21.1046 15 20V16.5C15 13.4624 17.4624 11 20.5 11L30.5 11C36.299 11 41 15.701 41 21.5V26C41 33.1797 35.1797 39 28 39H20C17.2386 39 15 36.7614 15 34V30C15 28.8954 15.8954 28 17 28C18.1046 28 19 28.8954 19 30V31.5Z" fill="white"/>
<path d="M20 23.5L23 23.5H24C24.5523 23.5 25 23.9477 25 24.5V25.5C25 26.0523 24.5523 26.5 24 26.5H23H20H11.9701C11.4343 26.5 11 26.9343 11 27.4701C11 28.259 10.1085 28.718 9.4664 28.2598L7 26.5L6.06667 25.8C5.53333 25.4 5.53333 24.6 6.06667 24.2L7 23.5L9.4 21.7C10.0592 21.2056 11 21.676 11 22.5C11 23.0523 11.4477 23.5 12 23.5L20 23.5Z" fill="white"/>
</svg>
