<svg xmlns="http://www.w3.org/2000/svg" xmlns:xlink="http://www.w3.org/1999/xlink" width="100" zoomAndPan="magnify" viewBox="0 0 75 74.999997" height="100" preserveAspectRatio="xMidYMid meet" version="1.0"><defs><clipPath id="708015b5ef"><path d="M 44 44 L 67.5 44 L 67.5 67.5 L 44 67.5 Z M 44 44 " clip-rule="nonzero"/></clipPath></defs><path fill="#bfbdbc" d="M 32.28125 55.410156 C 31.8125 55.414062 31.34375 55.398438 30.875 55.371094 C 30.40625 55.339844 29.941406 55.296875 29.476562 55.242188 C 29.011719 55.183594 28.546875 55.113281 28.089844 55.027344 C 27.628906 54.941406 27.167969 54.839844 26.714844 54.726562 C 26.261719 54.613281 25.808594 54.488281 25.363281 54.34375 C 24.917969 54.203125 24.476562 54.050781 24.039062 53.882812 C 23.601562 53.710938 23.167969 53.53125 22.742188 53.335938 C 22.316406 53.140625 21.898438 52.933594 21.484375 52.710938 C 21.070312 52.492188 20.664062 52.257812 20.265625 52.011719 C 19.867188 51.765625 19.476562 51.507812 19.09375 51.238281 C 18.710938 50.96875 18.335938 50.6875 17.96875 50.394531 C 17.601562 50.105469 17.246094 49.800781 16.898438 49.484375 C 16.550781 49.171875 16.214844 48.847656 15.886719 48.511719 C 15.558594 48.175781 15.242188 47.832031 14.9375 47.476562 C 14.632812 47.121094 14.335938 46.757812 14.050781 46.382812 C 13.769531 46.011719 13.496094 45.628906 13.234375 45.242188 C 12.976562 44.851562 12.726562 44.453125 12.492188 44.050781 C 12.253906 43.644531 12.03125 43.234375 11.820312 42.816406 C 11.609375 42.394531 11.414062 41.972656 11.230469 41.542969 C 11.042969 41.109375 10.871094 40.675781 10.714844 40.234375 C 10.558594 39.792969 10.414062 39.347656 10.28125 38.898438 C 10.152344 38.445312 10.035156 37.992188 9.933594 37.535156 C 9.828125 37.078125 9.742188 36.621094 9.667969 36.15625 C 9.59375 35.695312 9.53125 35.230469 9.484375 34.761719 C 9.441406 34.296875 9.410156 33.828125 9.390625 33.363281 C 9.375 32.894531 9.371094 32.425781 9.382812 31.957031 C 9.394531 31.488281 9.421875 31.019531 9.460938 30.554688 C 9.5 30.085938 9.554688 29.621094 9.625 29.160156 C 9.691406 28.695312 9.777344 28.234375 9.871094 27.777344 C 9.96875 27.316406 10.082031 26.863281 10.207031 26.410156 C 10.332031 25.960938 10.46875 25.511719 10.621094 25.070312 C 10.773438 24.625 10.941406 24.1875 11.121094 23.753906 C 11.300781 23.324219 11.492188 22.894531 11.695312 22.476562 C 11.902344 22.054688 12.121094 21.640625 12.351562 21.230469 C 12.582031 20.824219 12.824219 20.425781 13.082031 20.03125 C 13.335938 19.636719 13.605469 19.253906 13.882812 18.878906 C 14.164062 18.5 14.453125 18.132812 14.753906 17.777344 C 15.058594 17.417969 15.371094 17.070312 15.691406 16.730469 C 16.015625 16.390625 16.347656 16.0625 16.691406 15.742188 C 17.035156 15.421875 17.386719 15.117188 17.75 14.816406 C 18.113281 14.519531 18.484375 14.234375 18.863281 13.960938 C 19.242188 13.6875 19.632812 13.425781 20.027344 13.171875 C 20.421875 12.921875 20.828125 12.683594 21.238281 12.460938 C 21.648438 12.234375 22.066406 12.019531 22.488281 11.820312 C 22.910156 11.621094 23.339844 11.433594 23.777344 11.257812 C 24.210938 11.085938 24.652344 10.925781 25.097656 10.777344 C 25.542969 10.632812 25.988281 10.5 26.441406 10.378906 C 26.894531 10.261719 27.351562 10.15625 27.8125 10.0625 C 28.273438 9.972656 28.734375 9.894531 29.199219 9.832031 C 29.664062 9.769531 30.128906 9.722656 30.59375 9.6875 C 31.0625 9.652344 31.53125 9.632812 32 9.628906 C 32.46875 9.621094 32.9375 9.628906 33.402344 9.652344 C 33.871094 9.675781 34.339844 9.714844 34.804688 9.765625 C 35.269531 9.820312 35.734375 9.882812 36.195312 9.964844 C 36.65625 10.046875 37.113281 10.140625 37.570312 10.25 C 38.027344 10.355469 38.480469 10.480469 38.925781 10.617188 C 39.375 10.75 39.820312 10.902344 40.257812 11.066406 C 40.695312 11.230469 41.128906 11.40625 41.558594 11.59375 C 41.988281 11.785156 42.410156 11.988281 42.824219 12.203125 C 43.242188 12.421875 43.648438 12.648438 44.050781 12.890625 C 44.453125 13.132812 44.847656 13.386719 45.234375 13.648438 C 45.617188 13.914062 45.996094 14.191406 46.367188 14.480469 C 46.734375 14.769531 47.09375 15.070312 47.445312 15.378906 C 47.796875 15.691406 48.136719 16.011719 48.46875 16.34375 C 49.265625 17.136719 50 17.988281 50.671875 18.890625 C 51.339844 19.796875 51.941406 20.746094 52.472656 21.738281 C 53.003906 22.730469 53.460938 23.757812 53.839844 24.816406 C 54.21875 25.875 54.519531 26.957031 54.738281 28.0625 C 54.960938 29.167969 55.097656 30.28125 55.152344 31.40625 C 55.207031 32.53125 55.179688 33.652344 55.070312 34.773438 C 54.960938 35.894531 54.765625 37 54.492188 38.089844 C 54.21875 39.183594 53.867188 40.25 53.4375 41.289062 C 53.007812 42.332031 52.5 43.332031 51.921875 44.296875 C 51.34375 45.265625 50.695312 46.183594 49.980469 47.050781 C 49.265625 47.921875 48.492188 48.734375 47.660156 49.492188 C 46.824219 50.246094 45.9375 50.9375 45 51.5625 C 44.066406 52.1875 43.089844 52.738281 42.070312 53.222656 C 41.050781 53.703125 40.003906 54.105469 38.925781 54.429688 C 37.847656 54.757812 36.753906 55.003906 35.640625 55.167969 C 34.527344 55.332031 33.40625 55.414062 32.28125 55.410156 Z M 32.28125 14.667969 C 31.597656 14.667969 30.914062 14.707031 30.238281 14.78125 C 29.558594 14.859375 28.886719 14.972656 28.21875 15.128906 C 27.554688 15.28125 26.902344 15.472656 26.257812 15.703125 C 25.613281 15.929688 24.984375 16.195312 24.371094 16.496094 C 23.757812 16.796875 23.164062 17.132812 22.589844 17.5 C 22.015625 17.871094 21.464844 18.269531 20.933594 18.703125 C 20.40625 19.136719 19.902344 19.597656 19.425781 20.085938 C 18.949219 20.578125 18.503906 21.09375 18.089844 21.632812 C 17.671875 22.175781 17.285156 22.738281 16.933594 23.324219 C 16.582031 23.910156 16.265625 24.511719 15.980469 25.132812 C 15.699219 25.753906 15.453125 26.390625 15.242188 27.042969 C 15.03125 27.691406 14.859375 28.351562 14.726562 29.019531 C 14.59375 29.691406 14.496094 30.367188 14.441406 31.046875 C 14.382812 31.726562 14.367188 32.410156 14.386719 33.09375 C 14.410156 33.773438 14.46875 34.453125 14.566406 35.128906 C 14.667969 35.804688 14.804688 36.472656 14.980469 37.132812 C 15.15625 37.792969 15.371094 38.441406 15.621094 39.078125 C 15.871094 39.710938 16.15625 40.332031 16.476562 40.933594 C 16.800781 41.539062 17.15625 42.121094 17.542969 42.683594 C 17.929688 43.242188 18.351562 43.78125 18.800781 44.296875 C 19.25 44.808594 19.726562 45.296875 20.234375 45.753906 C 20.738281 46.214844 21.269531 46.644531 21.824219 47.042969 C 22.378906 47.441406 22.953125 47.804688 23.550781 48.136719 C 24.148438 48.46875 24.761719 48.765625 25.394531 49.027344 C 26.023438 49.289062 26.667969 49.515625 27.324219 49.703125 C 27.980469 49.890625 28.648438 50.042969 29.320312 50.152344 C 29.996094 50.265625 30.671875 50.335938 31.355469 50.371094 C 32.039062 50.40625 32.71875 50.398438 33.402344 50.355469 C 34.082031 50.3125 34.757812 50.226562 35.429688 50.105469 C 36.101562 49.984375 36.765625 49.824219 37.421875 49.625 C 38.074219 49.425781 38.714844 49.191406 39.339844 48.921875 C 39.96875 48.648438 40.578125 48.34375 41.167969 48 C 41.761719 47.660156 42.332031 47.285156 42.878906 46.878906 C 43.425781 46.472656 43.949219 46.035156 44.449219 45.566406 C 44.949219 45.101562 45.417969 44.605469 45.859375 44.085938 C 46.300781 43.566406 46.714844 43.019531 47.09375 42.453125 C 47.472656 41.886719 47.816406 41.296875 48.128906 40.691406 C 48.441406 40.082031 48.71875 39.457031 48.957031 38.820312 C 49.199219 38.179688 49.402344 37.527344 49.566406 36.867188 C 49.734375 36.203125 49.859375 35.535156 49.949219 34.855469 C 50.039062 34.179688 50.089844 33.5 50.097656 32.816406 C 50.109375 32.132812 50.082031 31.453125 50.015625 30.773438 C 49.945312 30.09375 49.839844 29.417969 49.695312 28.75 C 49.550781 28.082031 49.371094 27.425781 49.148438 26.777344 C 48.929688 26.132812 48.671875 25.5 48.382812 24.882812 C 48.089844 24.265625 47.761719 23.667969 47.402344 23.085938 C 47.039062 22.507812 46.644531 21.949219 46.222656 21.414062 C 45.796875 20.882812 45.34375 20.371094 44.859375 19.890625 C 43.191406 18.222656 41.265625 16.933594 39.085938 16.03125 C 36.910156 15.125 34.640625 14.671875 32.28125 14.667969 Z M 32.28125 14.667969 " fill-opacity="1" fill-rule="nonzero"/><g clip-path="url(#708015b5ef)"><path fill="#bfbdbc" d="M 64.734375 67.5 C 64.039062 67.496094 63.449219 67.25 62.960938 66.757812 L 44.910156 48.71875 C 44.671875 48.484375 44.492188 48.210938 44.363281 47.902344 C 44.234375 47.59375 44.171875 47.273438 44.171875 46.941406 C 44.171875 46.605469 44.234375 46.285156 44.363281 45.976562 C 44.492188 45.667969 44.671875 45.394531 44.910156 45.160156 C 45.144531 44.925781 45.417969 44.742188 45.726562 44.613281 C 46.035156 44.488281 46.355469 44.421875 46.6875 44.421875 C 47.023438 44.421875 47.34375 44.488281 47.652344 44.613281 C 47.960938 44.742188 48.234375 44.925781 48.46875 45.160156 L 66.507812 63.210938 C 66.863281 63.570312 67.089844 64 67.191406 64.496094 C 67.289062 64.992188 67.242188 65.476562 67.046875 65.945312 C 66.851562 66.414062 66.546875 66.789062 66.125 67.074219 C 65.703125 67.355469 65.238281 67.496094 64.734375 67.5 Z M 64.734375 67.5 " fill-opacity="1" fill-rule="nonzero"/></g></svg>