<svg width="138" height="24" viewBox="0 0 138 24" fill="none" xmlns="http://www.w3.org/2000/svg">
<path d="M35.5312 7.63281L31.7656 18H30.2266L34.5625 6.625H35.5547L35.5312 7.63281ZM38.6875 18L34.9141 7.63281L34.8906 6.625H35.8828L40.2344 18H38.6875ZM38.4922 13.7891V15.0234H32.1016V13.7891H38.4922ZM46.8672 16.3594V6H48.3203V18H46.9922L46.8672 16.3594ZM41.1797 13.8672V13.7031C41.1797 13.0573 41.2578 12.4714 41.4141 11.9453C41.5755 11.4141 41.8021 10.9583 42.0938 10.5781C42.3906 10.1979 42.7422 9.90625 43.1484 9.70312C43.5599 9.49479 44.0182 9.39062 44.5234 9.39062C45.0547 9.39062 45.5182 9.48438 45.9141 9.67188C46.3151 9.85417 46.6536 10.1224 46.9297 10.4766C47.2109 10.8255 47.4323 11.2474 47.5938 11.7422C47.7552 12.237 47.8672 12.7969 47.9297 13.4219V14.1406C47.8724 14.7604 47.7604 15.3177 47.5938 15.8125C47.4323 16.3073 47.2109 16.7292 46.9297 17.0781C46.6536 17.4271 46.3151 17.6953 45.9141 17.8828C45.513 18.0651 45.0443 18.1562 44.5078 18.1562C44.013 18.1562 43.5599 18.0495 43.1484 17.8359C42.7422 17.6224 42.3906 17.3229 42.0938 16.9375C41.8021 16.5521 41.5755 16.099 41.4141 15.5781C41.2578 15.0521 41.1797 14.4818 41.1797 13.8672ZM42.6328 13.7031V13.8672C42.6328 14.2891 42.6745 14.6849 42.7578 15.0547C42.8464 15.4245 42.9818 15.75 43.1641 16.0312C43.3464 16.3125 43.5781 16.5339 43.8594 16.6953C44.1406 16.8516 44.4766 16.9297 44.8672 16.9297C45.3464 16.9297 45.7396 16.8281 46.0469 16.625C46.3594 16.4219 46.6094 16.1536 46.7969 15.8203C46.9844 15.487 47.1302 15.125 47.2344 14.7344V12.8516C47.1719 12.5651 47.0807 12.2891 46.9609 12.0234C46.8464 11.7526 46.6953 11.513 46.5078 11.3047C46.3255 11.0911 46.099 10.9219 45.8281 10.7969C45.5625 10.6719 45.2474 10.6094 44.8828 10.6094C44.487 10.6094 44.1458 10.6927 43.8594 10.8594C43.5781 11.0208 43.3464 11.2448 43.1641 11.5312C42.9818 11.8125 42.8464 12.1406 42.7578 12.5156C42.6745 12.8854 42.6328 13.2812 42.6328 13.7031ZM55.8984 16.3594V6H57.3516V18H56.0234L55.8984 16.3594ZM50.2109 13.8672V13.7031C50.2109 13.0573 50.2891 12.4714 50.4453 11.9453C50.6068 11.4141 50.8333 10.9583 51.125 10.5781C51.4219 10.1979 51.7734 9.90625 52.1797 9.70312C52.5911 9.49479 53.0495 9.39062 53.5547 9.39062C54.0859 9.39062 54.5495 9.48438 54.9453 9.67188C55.3464 9.85417 55.6849 10.1224 55.9609 10.4766C56.2422 10.8255 56.4635 11.2474 56.625 11.7422C56.7865 12.237 56.8984 12.7969 56.9609 13.4219V14.1406C56.9036 14.7604 56.7917 15.3177 56.625 15.8125C56.4635 16.3073 56.2422 16.7292 55.9609 17.0781C55.6849 17.4271 55.3464 17.6953 54.9453 17.8828C54.5443 18.0651 54.0755 18.1562 53.5391 18.1562C53.0443 18.1562 52.5911 18.0495 52.1797 17.8359C51.7734 17.6224 51.4219 17.3229 51.125 16.9375C50.8333 16.5521 50.6068 16.099 50.4453 15.5781C50.2891 15.0521 50.2109 14.4818 50.2109 13.8672ZM51.6641 13.7031V13.8672C51.6641 14.2891 51.7057 14.6849 51.7891 15.0547C51.8776 15.4245 52.013 15.75 52.1953 16.0312C52.3776 16.3125 52.6094 16.5339 52.8906 16.6953C53.1719 16.8516 53.5078 16.9297 53.8984 16.9297C54.3776 16.9297 54.7708 16.8281 55.0781 16.625C55.3906 16.4219 55.6406 16.1536 55.8281 15.8203C56.0156 15.487 56.1615 15.125 56.2656 14.7344V12.8516C56.2031 12.5651 56.112 12.2891 55.9922 12.0234C55.8776 11.7526 55.7266 11.513 55.5391 11.3047C55.3568 11.0911 55.1302 10.9219 54.8594 10.7969C54.5938 10.6719 54.2786 10.6094 53.9141 10.6094C53.5182 10.6094 53.1771 10.6927 52.8906 10.8594C52.6094 11.0208 52.3776 11.2448 52.1953 11.5312C52.013 11.8125 51.8776 12.1406 51.7891 12.5156C51.7057 12.8854 51.6641 13.2812 51.6641 13.7031ZM65.0156 11.3516V18H63.5703V9.54688H64.9375L65.0156 11.3516ZM64.6719 13.4531L64.0703 13.4297C64.0755 12.8516 64.1615 12.3177 64.3281 11.8281C64.4948 11.3333 64.7292 10.9036 65.0312 10.5391C65.3333 10.1745 65.6927 9.89323 66.1094 9.69531C66.5312 9.49219 66.9974 9.39062 67.5078 9.39062C67.9245 9.39062 68.2995 9.44792 68.6328 9.5625C68.9661 9.67188 69.25 9.84896 69.4844 10.0938C69.724 10.3385 69.9062 10.6562 70.0312 11.0469C70.1562 11.4323 70.2188 11.9036 70.2188 12.4609V18H68.7656V12.4453C68.7656 12.0026 68.7005 11.6484 68.5703 11.3828C68.4401 11.112 68.25 10.9167 68 10.7969C67.75 10.6719 67.4427 10.6094 67.0781 10.6094C66.7188 10.6094 66.3906 10.6849 66.0938 10.8359C65.8021 10.987 65.5495 11.1953 65.3359 11.4609C65.1276 11.7266 64.9635 12.0312 64.8438 12.375C64.7292 12.7135 64.6719 13.0729 64.6719 13.4531ZM75.9219 18.1562C75.3333 18.1562 74.7995 18.0573 74.3203 17.8594C73.8464 17.6562 73.4375 17.3724 73.0938 17.0078C72.7552 16.6432 72.4948 16.2109 72.3125 15.7109C72.1302 15.2109 72.0391 14.6641 72.0391 14.0703V13.7422C72.0391 13.0547 72.1406 12.4427 72.3438 11.9062C72.5469 11.3646 72.8229 10.9062 73.1719 10.5312C73.5208 10.1562 73.9167 9.8724 74.3594 9.67969C74.8021 9.48698 75.2604 9.39062 75.7344 9.39062C76.3385 9.39062 76.8594 9.49479 77.2969 9.70312C77.7396 9.91146 78.1016 10.2031 78.3828 10.5781C78.6641 10.9479 78.8724 11.3854 79.0078 11.8906C79.1432 12.3906 79.2109 12.9375 79.2109 13.5312V14.1797H72.8984V13H77.7656V12.8906C77.7448 12.5156 77.6667 12.151 77.5312 11.7969C77.401 11.4427 77.1927 11.151 76.9062 10.9219C76.6198 10.6927 76.2292 10.5781 75.7344 10.5781C75.4062 10.5781 75.1042 10.6484 74.8281 10.7891C74.5521 10.9245 74.3151 11.1276 74.1172 11.3984C73.9193 11.6693 73.7656 12 73.6562 12.3906C73.5469 12.7812 73.4922 13.2318 73.4922 13.7422V14.0703C73.4922 14.4714 73.5469 14.849 73.6562 15.2031C73.7708 15.5521 73.9349 15.8594 74.1484 16.125C74.3672 16.3906 74.6302 16.599 74.9375 16.75C75.25 16.901 75.6042 16.9766 76 16.9766C76.5104 16.9766 76.9427 16.8724 77.2969 16.6641C77.651 16.4557 77.9609 16.1771 78.2266 15.8281L79.1016 16.5234C78.9193 16.7995 78.6875 17.0625 78.4062 17.3125C78.125 17.5625 77.7786 17.7656 77.3672 17.9219C76.9609 18.0781 76.4792 18.1562 75.9219 18.1562ZM83.0391 16.5L85.2109 9.54688H86.1641L85.9766 10.9297L83.7656 18H82.8359L83.0391 16.5ZM81.5781 9.54688L83.4297 16.5781L83.5625 18H82.5859L80.1328 9.54688H81.5781ZM88.2422 16.5234L90.0078 9.54688H91.4453L88.9922 18H88.0234L88.2422 16.5234ZM86.375 9.54688L88.5 16.3828L88.7422 18H87.8203L85.5469 10.9141L85.3594 9.54688H86.375ZM98.3438 11.3516V18H96.8984V9.54688H98.2656L98.3438 11.3516ZM98 13.4531L97.3984 13.4297C97.4036 12.8516 97.4896 12.3177 97.6562 11.8281C97.8229 11.3333 98.0573 10.9036 98.3594 10.5391C98.6615 10.1745 99.0208 9.89323 99.4375 9.69531C99.8594 9.49219 100.326 9.39062 100.836 9.39062C101.253 9.39062 101.628 9.44792 101.961 9.5625C102.294 9.67188 102.578 9.84896 102.812 10.0938C103.052 10.3385 103.234 10.6562 103.359 11.0469C103.484 11.4323 103.547 11.9036 103.547 12.4609V18H102.094V12.4453C102.094 12.0026 102.029 11.6484 101.898 11.3828C101.768 11.112 101.578 10.9167 101.328 10.7969C101.078 10.6719 100.771 10.6094 100.406 10.6094C100.047 10.6094 99.7188 10.6849 99.4219 10.8359C99.1302 10.987 98.8776 11.1953 98.6641 11.4609C98.4557 11.7266 98.2917 12.0312 98.1719 12.375C98.0573 12.7135 98 13.0729 98 13.4531ZM105.359 13.8672V13.6875C105.359 13.0781 105.448 12.513 105.625 11.9922C105.802 11.4661 106.057 11.0104 106.391 10.625C106.724 10.2344 107.128 9.93229 107.602 9.71875C108.076 9.5 108.607 9.39062 109.195 9.39062C109.789 9.39062 110.323 9.5 110.797 9.71875C111.276 9.93229 111.682 10.2344 112.016 10.625C112.354 11.0104 112.612 11.4661 112.789 11.9922C112.966 12.513 113.055 13.0781 113.055 13.6875V13.8672C113.055 14.4766 112.966 15.0417 112.789 15.5625C112.612 16.0833 112.354 16.5391 112.016 16.9297C111.682 17.3151 111.279 17.6172 110.805 17.8359C110.336 18.0495 109.805 18.1562 109.211 18.1562C108.617 18.1562 108.083 18.0495 107.609 17.8359C107.135 17.6172 106.729 17.3151 106.391 16.9297C106.057 16.5391 105.802 16.0833 105.625 15.5625C105.448 15.0417 105.359 14.4766 105.359 13.8672ZM106.805 13.6875V13.8672C106.805 14.2891 106.854 14.6875 106.953 15.0625C107.052 15.4323 107.201 15.7604 107.398 16.0469C107.602 16.3333 107.854 16.5599 108.156 16.7266C108.458 16.888 108.81 16.9688 109.211 16.9688C109.607 16.9688 109.953 16.888 110.25 16.7266C110.552 16.5599 110.802 16.3333 111 16.0469C111.198 15.7604 111.346 15.4323 111.445 15.0625C111.549 14.6875 111.602 14.2891 111.602 13.8672V13.6875C111.602 13.2708 111.549 12.8776 111.445 12.5078C111.346 12.1328 111.195 11.8021 110.992 11.5156C110.794 11.224 110.544 10.9948 110.242 10.8281C109.945 10.6615 109.596 10.5781 109.195 10.5781C108.799 10.5781 108.451 10.6615 108.148 10.8281C107.852 10.9948 107.602 11.224 107.398 11.5156C107.201 11.8021 107.052 12.1328 106.953 12.5078C106.854 12.8776 106.805 13.2708 106.805 13.6875ZM118.406 9.54688V10.6562H113.836V9.54688H118.406ZM115.383 7.49219H116.828V15.9062C116.828 16.1927 116.872 16.4089 116.961 16.5547C117.049 16.7005 117.164 16.7969 117.305 16.8438C117.445 16.8906 117.596 16.9141 117.758 16.9141C117.878 16.9141 118.003 16.9036 118.133 16.8828C118.268 16.8568 118.37 16.8359 118.438 16.8203L118.445 18C118.331 18.0365 118.18 18.0703 117.992 18.1016C117.81 18.138 117.589 18.1562 117.328 18.1562C116.974 18.1562 116.648 18.0859 116.352 17.9453C116.055 17.8047 115.818 17.5703 115.641 17.2422C115.469 16.9089 115.383 16.4609 115.383 15.8984V7.49219ZM123.609 18.1562C123.021 18.1562 122.487 18.0573 122.008 17.8594C121.534 17.6562 121.125 17.3724 120.781 17.0078C120.443 16.6432 120.182 16.2109 120 15.7109C119.818 15.2109 119.727 14.6641 119.727 14.0703V13.7422C119.727 13.0547 119.828 12.4427 120.031 11.9062C120.234 11.3646 120.51 10.9062 120.859 10.5312C121.208 10.1562 121.604 9.8724 122.047 9.67969C122.49 9.48698 122.948 9.39062 123.422 9.39062C124.026 9.39062 124.547 9.49479 124.984 9.70312C125.427 9.91146 125.789 10.2031 126.07 10.5781C126.352 10.9479 126.56 11.3854 126.695 11.8906C126.831 12.3906 126.898 12.9375 126.898 13.5312V14.1797H120.586V13H125.453V12.8906C125.432 12.5156 125.354 12.151 125.219 11.7969C125.089 11.4427 124.88 11.151 124.594 10.9219C124.307 10.6927 123.917 10.5781 123.422 10.5781C123.094 10.5781 122.792 10.6484 122.516 10.7891C122.24 10.9245 122.003 11.1276 121.805 11.3984C121.607 11.6693 121.453 12 121.344 12.3906C121.234 12.7812 121.18 13.2318 121.18 13.7422V14.0703C121.18 14.4714 121.234 14.849 121.344 15.2031C121.458 15.5521 121.622 15.8594 121.836 16.125C122.055 16.3906 122.318 16.599 122.625 16.75C122.938 16.901 123.292 16.9766 123.688 16.9766C124.198 16.9766 124.63 16.8724 124.984 16.6641C125.339 16.4557 125.648 16.1771 125.914 15.8281L126.789 16.5234C126.607 16.7995 126.375 17.0625 126.094 17.3125C125.812 17.5625 125.466 17.7656 125.055 17.9219C124.648 18.0781 124.167 18.1562 123.609 18.1562Z" fill="#77B8EE"/>
<mask id="mask0_246_5" style="mask-type:luminance" maskUnits="userSpaceOnUse" x="0" y="0" width="24" height="24">
<path d="M0 0H24V24H0V0Z" fill="white"/>
</mask>
<g mask="url(#mask0_246_5)">
<path d="M12 0C5.38397 0 0 5.38397 0 12C0 18.616 5.38397 24 12 24C18.616 24 24 18.616 24 12C24 5.38397 18.616 0 12 0ZM18.1681 13.16H13.16V18.1678C13.16 18.8079 12.64 19.3278 12 19.3278C11.36 19.3278 10.84 18.8079 10.84 18.1678V13.16H5.83218C5.19213 13.16 4.67216 12.64 4.67216 12C4.67216 11.36 5.19213 10.84 5.83218 10.84H10.84V5.83189C10.84 5.19184 11.36 4.67188 12 4.67188C12.64 4.67188 13.16 5.19184 13.16 5.83189V10.84H18.1681C18.8082 10.84 19.3281 11.36 19.3281 12C19.3281 12.64 18.8082 13.16 18.1681 13.16Z" fill="#77B8EE"/>
</g>
</svg>
