<svg width="50" height="50" viewBox="0 0 50 50" fill="none" xmlns="http://www.w3.org/2000/svg">
<path d="M50 25C50 38.8071 38.8071 50 25 50C11.1929 50 0 38.8071 0 25C0 11.1929 11.1929 0 25 0C38.8071 0 50 11.1929 50 25Z" fill="#77B8EE"/>
<path d="M38.7349 16.0309H11.2634C9.78838 16.0309 8.59375 14.7528 8.59375 13.1777C8.59375 11.6008 9.78838 10.3245 11.2634 10.3245H38.7349C40.21 10.3245 41.4062 11.6008 41.4062 13.1777C41.4062 14.7528 40.21 16.0309 38.7349 16.0309Z" fill="white"/>
<path d="M38.7349 27.8532H11.2634C9.78838 27.8532 8.59375 26.5751 8.59375 25C8.59375 23.4231 9.78838 22.1468 11.2634 22.1468H38.7349C40.21 22.1468 41.4062 23.4231 41.4062 25C41.4062 26.5751 40.21 27.8532 38.7349 27.8532Z" fill="white"/>
<path d="M38.7349 39.6755H11.2634C9.78838 39.6755 8.59375 38.3975 8.59375 36.8223C8.59375 35.2454 9.78838 33.9691 11.2634 33.9691H38.7349C40.21 33.9691 41.4062 35.2454 41.4062 36.8223C41.4062 38.3975 40.21 39.6755 38.7349 39.6755Z" fill="white"/>
</svg>
