<svg width="206" height="58" viewBox="0 0 206 58" fill="none" xmlns="http://www.w3.org/2000/svg">
<mask id="mask0_46_8" style="mask-type:luminance" maskUnits="userSpaceOnUse" x="0" y="0" width="59" height="58">
<path d="M0.0663452 0H58.2588V57.8707H0.0663452V0Z" fill="white"/>
</mask>
<g mask="url(#mask0_46_8)">
<path d="M52.6328 15.1284L50.2786 17.4748C47.8644 15.0685 43.0105 10.2307 40.5962 7.82444L42.9504 5.48123C49.5445 -0.706362 58.8377 8.56241 52.6328 15.1284ZM20.0291 47.6243L16.3871 43.9944L44.2382 16.2354L47.8802 19.8653L20.0291 47.6243ZM12.3654 51.1407L6.81863 45.6123L8.59373 41.0079C9.14114 41.5534 16.7415 49.1287 16.9851 49.3715L12.3654 51.1407ZM4.53409 54.1431C4.23666 54.2566 4.03099 54.1147 3.9329 54.0169C3.83797 53.9192 3.69242 53.7142 3.80633 53.4177L5.48651 49.0656L8.90382 52.4685L4.53409 54.1431ZM38.1978 10.215L41.8398 13.8449L13.9887 41.6039L10.3467 37.974L38.1978 10.215ZM55.0312 3.09071C51.2184 -0.867202 44.3648 -0.870356 40.5519 3.09071C40.5488 3.09387 37.0017 6.62918 36.9986 6.63234L6.74902 36.7787C6.59081 36.9553 6.45158 37.1477 6.36615 37.3685L0.64215 52.2035C0.0725978 53.6795 0.41433 55.2879 1.53445 56.4075C2.6609 57.5333 4.29361 57.8613 5.7523 57.3C5.75546 57.3 12.5838 54.6792 12.5869 54.6792C12.8306 54.5373 21.3802 51.4467 21.2283 51.2101L55.0312 17.519C58.9991 13.7219 59.0023 6.88463 55.0312 3.09071Z" fill="white"/>
</g>
<path d="M98.0127 55.7135C97.2335 55.7135 96.4738 55.5966 95.7336 55.3628C95.0032 55.1193 94.4285 54.7979 94 54.4084L94.5649 53.2396C94.9642 53.5902 95.4804 53.8824 96.1037 54.1162C96.7271 54.3402 97.3601 54.4473 98.0127 54.4473C98.8795 54.4473 99.532 54.3061 99.9606 54.0188C100.389 53.7217 100.603 53.3273 100.603 52.8306C100.603 52.4702 100.487 52.178 100.253 51.954C100.019 51.7349 99.7268 51.5644 99.3762 51.4476C99.0353 51.3209 98.5581 51.1846 97.9348 51.0385C97.141 50.8437 96.5031 50.6587 96.0258 50.4736C95.5437 50.2788 95.1298 49.9866 94.7792 49.597C94.4383 49.1977 94.2727 48.6621 94.2727 47.9998C94.2727 47.4446 94.4139 46.943 94.7012 46.4999C94.9983 46.047 95.4463 45.6818 96.0453 45.4091C96.6394 45.1364 97.3796 45 98.2659 45C98.8892 45 99.498 45.0877 100.097 45.2532C100.691 45.4091 101.207 45.6379 101.636 45.935L101.149 47.1232C100.706 46.8505 100.233 46.646 99.7268 46.4999C99.2301 46.3587 98.7431 46.2856 98.2659 46.2856C97.4186 46.2856 96.7855 46.4414 96.357 46.7531C95.9382 47.055 95.7336 47.4495 95.7336 47.9413C95.7336 48.292 95.8505 48.5841 96.0843 48.8179C96.3277 49.0419 96.6297 49.2172 96.9803 49.3438C97.3309 49.4607 97.8081 49.5922 98.4217 49.7334C99.2106 49.9282 99.8437 50.123 100.311 50.3178C100.788 50.5028 101.197 50.7853 101.538 51.1748C101.889 51.5644 102.064 52.0855 102.064 52.7332C102.064 53.2932 101.913 53.7996 101.616 54.2525C101.314 54.6957 100.861 55.0512 100.253 55.3239C99.6538 55.5868 98.9087 55.7135 98.0127 55.7135Z" fill="white"/>
<path d="M111.102 46.4213H107.518V45.1162H116.186V46.4213H112.582V55.5959H111.102V46.4213Z" fill="white"/>
<path d="M126.914 55.7128C125.521 55.7128 124.44 55.3183 123.661 54.5246C122.882 53.7211 122.492 52.5718 122.492 51.0768V45.1162H123.992V51.0184C123.992 53.2682 124.971 54.3882 126.933 54.3882C127.893 54.3882 128.628 54.1155 129.135 53.5701C129.641 53.015 129.894 52.1627 129.894 51.0184V45.1162H131.355V51.0768C131.355 52.5864 130.966 53.7357 130.186 54.5246C129.407 55.3183 128.316 55.7128 126.914 55.7128Z" fill="white"/>
<path d="M139.195 45.1162H143.598C144.698 45.1162 145.682 45.3402 146.539 45.7785C147.406 46.2216 148.078 46.8401 148.545 47.629C149.022 48.4228 149.266 49.3334 149.266 50.3561C149.266 51.3836 149.022 52.2942 148.545 53.0831C148.078 53.8769 147.406 54.4954 146.539 54.9336C145.682 55.3768 144.698 55.5959 143.598 55.5959H139.195V45.1162ZM143.52 54.2908C144.362 54.2908 145.102 54.1301 145.74 53.8039C146.388 53.4678 146.89 53.0052 147.24 52.4208C147.591 51.8267 147.766 51.1352 147.766 50.3561C147.766 49.5769 147.591 48.8951 147.24 48.3108C146.89 47.7167 146.388 47.254 145.74 46.9278C145.102 46.5917 144.362 46.4213 143.52 46.4213H140.676V54.2908H143.52Z" fill="white"/>
<path d="M156.325 45.1162H157.805V55.5959H156.325V45.1162Z" fill="white"/>
<path d="M170.448 55.7135C169.397 55.7135 168.442 55.4894 167.585 55.0317C166.738 54.5642 166.075 53.9214 165.598 53.1033C165.116 52.2852 164.877 51.3696 164.877 50.3567C164.877 49.3584 165.116 48.4478 165.598 47.6297C166.075 46.8115 166.738 46.1687 167.585 45.7012C168.442 45.2337 169.397 45 170.448 45C171.5 45 172.445 45.2337 173.292 45.7012C174.149 46.1687 174.812 46.8115 175.279 47.6297C175.756 48.438 176 49.3438 176 50.3567C176 51.3842 175.756 52.3046 175.279 53.1227C174.812 53.9311 174.149 54.5642 173.292 55.0317C172.445 55.4894 171.5 55.7135 170.448 55.7135ZM170.448 54.3889C171.213 54.3889 171.9 54.2136 172.513 53.8629C173.137 53.5123 173.624 53.0351 173.974 52.4215C174.325 51.8128 174.5 51.1261 174.5 50.3567C174.5 49.6068 174.325 48.925 173.974 48.3114C173.624 47.6881 173.137 47.2109 172.513 46.87C171.9 46.5194 171.213 46.3441 170.448 46.3441C169.679 46.3441 168.988 46.5194 168.364 46.87C167.741 47.2109 167.254 47.6881 166.903 48.3114C166.553 48.925 166.377 49.6068 166.377 50.3567C166.377 51.1261 166.553 51.8128 166.903 52.4215C167.254 53.0351 167.741 53.5123 168.364 53.8629C168.988 54.2136 169.679 54.3889 170.448 54.3889Z" fill="white"/>
<path d="M75.7617 34H72.0469L72.0703 31.2578H75.7617C76.6836 31.2578 77.4609 31.0508 78.0938 30.6367C78.7266 30.2148 79.2031 29.6016 79.5234 28.7969C79.8516 27.9922 80.0156 27.0195 80.0156 25.8789V25.0469C80.0156 24.1719 79.9219 23.4023 79.7344 22.7383C79.5547 22.0742 79.2852 21.5156 78.9258 21.0625C78.5664 20.6094 78.125 20.2695 77.6016 20.043C77.0781 19.8086 76.4766 19.6914 75.7969 19.6914H71.9766V16.9375H75.7969C76.9375 16.9375 77.9805 17.1328 78.9258 17.5234C79.8789 17.9062 80.7031 18.457 81.3984 19.1758C82.0938 19.8945 82.6289 20.7539 83.0039 21.7539C83.3867 22.7461 83.5781 23.8516 83.5781 25.0703V25.8789C83.5781 27.0898 83.3867 28.1953 83.0039 29.1953C82.6289 30.1953 82.0938 31.0547 81.3984 31.7734C80.7109 32.4844 79.8867 33.0352 78.9258 33.4258C77.9727 33.8086 76.918 34 75.7617 34ZM74.0391 16.9375V34H70.5234V16.9375H74.0391ZM97.582 31.2578V34H88.5V31.2578H97.582ZM89.6484 16.9375V34H86.1328V16.9375H89.6484ZM96.3984 23.8867V26.5586H88.5V23.8867H96.3984ZM97.5703 16.9375V19.6914H88.5V16.9375H97.5703ZM105.785 30.4375L109.805 16.9375H113.719L107.777 34H105.199L105.785 30.4375ZM102.082 16.9375L106.09 30.4375L106.699 34H104.098L98.1914 16.9375H102.082ZM128.285 16.9375V34H124.781V16.9375H128.285ZM133.535 16.9375V19.6914H119.613V16.9375H133.535ZM149.227 25.0703V25.8789C149.227 27.1758 149.051 28.3398 148.699 29.3711C148.348 30.4023 147.852 31.2812 147.211 32.0078C146.57 32.7266 145.805 33.2773 144.914 33.6602C144.031 34.043 143.051 34.2344 141.973 34.2344C140.902 34.2344 139.922 34.043 139.031 33.6602C138.148 33.2773 137.383 32.7266 136.734 32.0078C136.086 31.2812 135.582 30.4023 135.223 29.3711C134.871 28.3398 134.695 27.1758 134.695 25.8789V25.0703C134.695 23.7656 134.871 22.6016 135.223 21.5781C135.574 20.5469 136.07 19.668 136.711 18.9414C137.359 18.2148 138.125 17.6602 139.008 17.2773C139.898 16.8945 140.879 16.7031 141.949 16.7031C143.027 16.7031 144.008 16.8945 144.891 17.2773C145.781 17.6602 146.547 18.2148 147.188 18.9414C147.836 19.668 148.336 20.5469 148.688 21.5781C149.047 22.6016 149.227 23.7656 149.227 25.0703ZM145.676 25.8789V25.0469C145.676 24.1406 145.594 23.3438 145.43 22.6562C145.266 21.9688 145.023 21.3906 144.703 20.9219C144.383 20.4531 143.992 20.1016 143.531 19.8672C143.07 19.625 142.543 19.5039 141.949 19.5039C141.355 19.5039 140.828 19.625 140.367 19.8672C139.914 20.1016 139.527 20.4531 139.207 20.9219C138.895 21.3906 138.656 21.9688 138.492 22.6562C138.328 23.3438 138.246 24.1406 138.246 25.0469V25.8789C138.246 26.7773 138.328 27.5742 138.492 28.2695C138.656 28.957 138.898 29.5391 139.219 30.0156C139.539 30.4844 139.93 30.8398 140.391 31.082C140.852 31.3242 141.379 31.4453 141.973 31.4453C142.566 31.4453 143.094 31.3242 143.555 31.082C144.016 30.8398 144.402 30.4844 144.715 30.0156C145.027 29.5391 145.266 28.957 145.43 28.2695C145.594 27.5742 145.676 26.7773 145.676 25.8789ZM158.203 25.3516V28H151.582V25.3516H158.203ZM166.465 34H162.75L162.773 31.2578H166.465C167.387 31.2578 168.164 31.0508 168.797 30.6367C169.43 30.2148 169.906 29.6016 170.227 28.7969C170.555 27.9922 170.719 27.0195 170.719 25.8789V25.0469C170.719 24.1719 170.625 23.4023 170.438 22.7383C170.258 22.0742 169.988 21.5156 169.629 21.0625C169.27 20.6094 168.828 20.2695 168.305 20.043C167.781 19.8086 167.18 19.6914 166.5 19.6914H162.68V16.9375H166.5C167.641 16.9375 168.684 17.1328 169.629 17.5234C170.582 17.9062 171.406 18.457 172.102 19.1758C172.797 19.8945 173.332 20.7539 173.707 21.7539C174.09 22.7461 174.281 23.8516 174.281 25.0703V25.8789C174.281 27.0898 174.09 28.1953 173.707 29.1953C173.332 30.1953 172.797 31.0547 172.102 31.7734C171.414 32.4844 170.59 33.0352 169.629 33.4258C168.676 33.8086 167.621 34 166.465 34ZM164.742 16.9375V34H161.227V16.9375H164.742ZM190.852 25.0703V25.8789C190.852 27.1758 190.676 28.3398 190.324 29.3711C189.973 30.4023 189.477 31.2812 188.836 32.0078C188.195 32.7266 187.43 33.2773 186.539 33.6602C185.656 34.043 184.676 34.2344 183.598 34.2344C182.527 34.2344 181.547 34.043 180.656 33.6602C179.773 33.2773 179.008 32.7266 178.359 32.0078C177.711 31.2812 177.207 30.4023 176.848 29.3711C176.496 28.3398 176.32 27.1758 176.32 25.8789V25.0703C176.32 23.7656 176.496 22.6016 176.848 21.5781C177.199 20.5469 177.695 19.668 178.336 18.9414C178.984 18.2148 179.75 17.6602 180.633 17.2773C181.523 16.8945 182.504 16.7031 183.574 16.7031C184.652 16.7031 185.633 16.8945 186.516 17.2773C187.406 17.6602 188.172 18.2148 188.812 18.9414C189.461 19.668 189.961 20.5469 190.312 21.5781C190.672 22.6016 190.852 23.7656 190.852 25.0703ZM187.301 25.8789V25.0469C187.301 24.1406 187.219 23.3438 187.055 22.6562C186.891 21.9688 186.648 21.3906 186.328 20.9219C186.008 20.4531 185.617 20.1016 185.156 19.8672C184.695 19.625 184.168 19.5039 183.574 19.5039C182.98 19.5039 182.453 19.625 181.992 19.8672C181.539 20.1016 181.152 20.4531 180.832 20.9219C180.52 21.3906 180.281 21.9688 180.117 22.6562C179.953 23.3438 179.871 24.1406 179.871 25.0469V25.8789C179.871 26.7773 179.953 27.5742 180.117 28.2695C180.281 28.957 180.523 29.5391 180.844 30.0156C181.164 30.4844 181.555 30.8398 182.016 31.082C182.477 31.3242 183.004 31.4453 183.598 31.4453C184.191 31.4453 184.719 31.3242 185.18 31.082C185.641 30.8398 186.027 30.4844 186.34 30.0156C186.652 29.5391 186.891 28.957 187.055 28.2695C187.219 27.5742 187.301 26.7773 187.301 25.8789Z" fill="white"/>
</svg>
