<svg xmlns="http://www.w3.org/2000/svg" xmlns:xlink="http://www.w3.org/1999/xlink" width="100" zoomAndPan="magnify" viewBox="0 0 75 74.999997" height="100" preserveAspectRatio="xMidYMid meet" version="1.0"><defs><clipPath id="b0d1d5d3f6"><path d="M 18.566406 9.449219 L 40 9.449219 L 40 50 L 18.566406 50 Z M 18.566406 9.449219 " clip-rule="nonzero"/></clipPath><clipPath id="71a6ea5b7b"><path d="M 35 25 L 56 25 L 56 65.699219 L 35 65.699219 Z M 35 25 " clip-rule="nonzero"/></clipPath></defs><g clip-path="url(#b0d1d5d3f6)"><path fill="#507cbc" d="M 30.964844 10.375 C 30.015625 9.414062 28.488281 9.414062 27.539062 10.375 L 19.664062 18.359375 C 18.71875 19.3125 18.71875 20.867188 19.664062 21.828125 C 20.613281 22.789062 22.144531 22.789062 23.089844 21.828125 L 26.839844 18.03125 L 26.839844 47.011719 C 26.839844 48.363281 27.921875 49.460938 29.261719 49.460938 C 30.597656 49.460938 31.683594 48.363281 31.683594 47.011719 L 31.683594 18.023438 L 35.433594 21.820312 C 35.90625 22.296875 36.527344 22.535156 37.144531 22.535156 C 37.757812 22.535156 38.382812 22.296875 38.851562 21.820312 C 39.800781 20.859375 39.800781 19.3125 38.851562 18.351562 Z M 30.964844 10.375 " fill-opacity="1" fill-rule="nonzero"/></g><g clip-path="url(#71a6ea5b7b)"><path fill="#507cbc" d="M 45.308594 25.90625 C 43.972656 25.90625 42.886719 27.003906 42.886719 28.355469 L 42.886719 57.335938 L 39.136719 53.539062 C 38.1875 52.578125 36.660156 52.578125 35.710938 53.539062 C 34.761719 54.5 34.761719 56.046875 35.710938 57.007812 L 43.59375 64.984375 C 44.070312 65.460938 44.683594 65.699219 45.308594 65.699219 C 45.921875 65.699219 46.546875 65.460938 47.015625 64.984375 L 54.898438 57.007812 C 55.84375 56.046875 55.84375 54.5 54.898438 53.539062 C 53.949219 52.578125 52.421875 52.578125 51.472656 53.539062 L 47.722656 57.335938 L 47.722656 28.355469 C 47.730469 27.003906 46.644531 25.90625 45.308594 25.90625 Z M 45.308594 25.90625 " fill-opacity="1" fill-rule="nonzero"/></g></svg>